<svg viewBox="0 0 6509 4759" xmlns="http://www.w3.org/2000/svg"><path d="M5211 2770.1h442.3V3236H5211z" fill="none"/><text transform="translate(5210.994 2869.775)"><tspan font-family="'AdobeClean-Bold'" font-size="140" x="0" y="0">CM</tspan><tspan font-family="'AdobeClean-Bold'" font-size="140" x="0" y="168">AIO</tspan><tspan font-family="'AdobeClean-Bold'" font-size="140" x="0" y="336">Ethos</tspan></text><path d="M1934 1619L563.8 925.5 1934 241l1377 684.5z" fill="#ed4a4a"/><path d="M1933 2333L564 1648l575-291 794 400zm0 1.2l1369-685-575-291-794 400z" fill="#0abc91"/><path d="M1933 3048L564 2363l575-291 794 400zm0 .2l1369-685-575-291-794 400z" fill="#fc992d"/><path d="M1937.7 3761.4l-1369-685 575-291 794 400z" fill="#7171ff"/><path d="M1937.7 3761.6l1369-685-575-291-794 400z" fill="#7171ff"/><path d="M1933 4472.6l-1369-685 575-291 794 400zm0 .2l1369-685-575-291-794 400z" fill="#2c96ff"/><path d="M3196 925h1308z" fill="#ed4a4a" stroke="#ed4a4a" stroke-miterlimit="10" stroke-width="20"/><path d="M3196.2 1650h1308z" fill="#ed4a4a" stroke="#0abc91" stroke-miterlimit="10" stroke-width="20"/><path d="M3195.9 2362h1308z" fill="none" stroke="#fc992d" stroke-miterlimit="10" stroke-width="20"/><path d="M3196.3 3076h1308z" fill="none" stroke="#7171ff" stroke-miterlimit="10" stroke-width="20"/><path d="M3196.4 3788h1308z" fill="none" stroke="#2c96ff" stroke-miterlimit="10" stroke-width="20"/><text font-family="'AdobeClean-Bold'" font-size="170" transform="translate(3271.692 849.267)">Experience Cloud</text><text font-family="'AdobeClean-Bold'" font-size="170" transform="translate(3706.887 1575.32)">Tools</text><text font-family="'AdobeClean-Bold'" font-size="170" transform="translate(3506.456 2283.32)">Commerce</text><text font-family="'AdobeClean-Bold'" font-size="170" transform="translate(3420.444 2998.32)">CI/CD &amp; PaaS</text><text font-family="'AdobeClean-Bold'" font-size="170" transform="translate(3484.785 3711.32)">Cloud Infra.</text><path d="M5045.6 1047h-362.3c-23.5 0-42.5-19-42.5-42.5V653.4c0-23.5 19-42.5 42.5-42.5h362.3c23.5 0 42.5 19 42.5 42.5v351.1c0 23.5-19 42.5-42.5 42.5z" fill="#fa0f00"/><path d="M4988.7 938.8h-53.1c-4.9 0-9.1-2.8-10.9-7L4867 796.9c-1-2.4-3.8-2.5-4.9-.1l-35.9 85.6c-.8 2 .6 4.2 2.8 4.2h39.5c2.4 0 4.7 1.5 5.6 3.7l17.3 38.5c2 4.7-1.5 9.9-6.5 9.9H4741c-4.6 0-7.7-4.6-6-9.1l91.5-217.9c1.8-4.6 6.3-7.7 11.6-7.7h52.8c5.3 0 9.9 3.2 11.6 7.7l92.1 217.9c1.8 4.6-1.4 9.2-5.9 9.2z" fill="#fff"/><path d="M5045.8 2490h-362.3c-23.5 0-42.5-19-42.5-42.5v-351.1c0-23.5 19-42.5 42.5-42.5h362.3c23.5 0 42.5 19 42.5 42.5v351.1c0 23.5-19 42.5-42.5 42.5z" fill="#fa0f00"/><path d="M4988.8 2381.8h-53.1c-4.9 0-9.1-2.8-10.9-7l-57.7-134.8c-1-2.4-3.8-2.5-4.9-.1l-35.9 85.6c-.8 2 .6 4.2 2.8 4.2h39.5c2.4 0 4.7 1.5 5.6 3.7l17.3 38.5c2 4.7-1.5 9.9-6.5 9.9h-143.8c-4.6 0-7.7-4.6-6-9.1l91.5-217.9c1.8-4.6 6.3-7.7 11.6-7.7h52.8c5.3 0 9.9 3.2 11.6 7.7l92.1 217.9c1.8 4.6-1.4 9.1-6 9.1z" fill="#fff"/><path d="M5046.6 3201h-362.3c-23.5 0-42.5-19-42.5-42.5v-351.1c0-23.5 19-42.5 42.5-42.5h362.3c23.5 0 42.5 19 42.5 42.5v351.1c0 23.5-19.1 42.5-42.5 42.5z" fill="#fa0f00"/><path d="M4989.6 3092.8h-53.1c-4.9 0-9.1-2.8-10.9-7l-57.7-134.8c-1-2.4-3.8-2.5-4.9-.1l-35.9 85.6c-.8 2 .6 4.2 2.8 4.2h39.5c2.4 0 4.7 1.5 5.6 3.7l17.3 38.5c2 4.7-1.5 9.9-6.5 9.9H4742c-4.6 0-7.7-4.6-6-9.1l91.5-217.9c1.8-4.6 6.3-7.7 11.6-7.7h52.8c5.3 0 9.9 3.2 11.6 7.7l92.1 217.9c1.7 4.5-1.5 9.1-6 9.1z" fill="#fff"/><path d="M4768 3677.5c0 5.5.6 10 1.6 13.2 1.2 3.3 2.7 6.8 4.8 10.7.7 1.2 1 2.4 1 3.4 0 1.5-.9 3-2.8 4.5l-9.4 6.3c-1.3.9-2.7 1.3-3.9 1.3-1.5 0-3-.7-4.5-2.1-2.1-2.2-3.9-4.6-5.4-7-1.5-2.5-3-5.4-4.6-8.8-11.6 13.7-26.2 20.5-43.8 20.5-12.5 0-22.5-3.6-29.8-10.7s-11-16.7-11-28.6c0-12.7 4.5-22.9 13.5-30.7 9.1-7.7 21.1-11.6 36.5-11.6 5.1 0 10.3.4 15.8 1.2s11.2 1.9 17.1 3.3v-10.9c0-11.3-2.4-19.2-7-23.8-4.8-4.6-12.8-6.8-24.3-6.8-5.2 0-10.6.6-16.1 1.9s-10.9 3-16.1 5.1c-2.4 1-4.2 1.6-5.2 1.9s-1.8.4-2.4.4c-2.1 0-3.1-1.5-3.1-4.6v-7.3c0-2.4.3-4.2 1-5.2s2.1-2.1 4.2-3.1c5.2-2.7 11.5-4.9 18.8-6.7 7.3-1.9 15-2.8 23.2-2.8 17.7 0 30.7 4 39 12.1 8.2 8 12.4 20.2 12.4 36.6v48.2h.5zm-60.5 22.7c4.9 0 10-.9 15.3-2.7 5.4-1.8 10.1-5.1 14.1-9.5 2.4-2.8 4.2-6 5.1-9.5.9-3.6 1.5-7.9 1.5-13v-6.3c-4.3-1-8.9-1.9-13.7-2.5s-9.4-.9-14-.9c-10 0-17.3 1.9-22.2 6-4.9 4-7.3 9.7-7.3 17.1 0 7 1.8 12.2 5.5 15.8 3.7 3.7 8.9 5.5 15.7 5.5zm119.6 16c-2.7 0-4.5-.4-5.7-1.5-1.2-.9-2.2-3-3.1-5.8l-35-115.1c-.9-3-1.3-4.9-1.3-6 0-2.4 1.2-3.7 3.6-3.7h14.6c2.8 0 4.8.4 5.8 1.5 1.2.9 2.1 3 3 5.8l25 98.6 23.2-98.6c.7-3 1.6-4.9 2.8-5.8s3.3-1.5 6-1.5h11.9c2.8 0 4.8.4 6 1.5 1.2.9 2.2 3 2.8 5.8l23.5 99.7 25.8-99.7c.9-3 1.9-4.9 3-5.8 1.2-.9 3.1-1.5 5.8-1.5h13.8c2.4 0 3.7 1.2 3.7 3.7 0 .7-.1 1.5-.3 2.4s-.4 2.1-1 3.7l-35.9 115.1c-.9 3-1.9 4.9-3.1 5.8s-3.1 1.5-5.7 1.5h-12.8c-2.8 0-4.8-.4-6-1.5-1.2-1-2.2-3-2.8-6l-23.1-96-22.9 95.9c-.7 3-1.6 4.9-2.8 6-1.2 1-3.3 1.5-6 1.5zm191.3 4.1c-7.7 0-15.5-.9-22.9-2.7s-13.2-3.7-17.1-6c-2.4-1.3-4-2.8-4.6-4.2-.6-1.3-.9-2.8-.9-4.2v-7.6c0-3.1 1.2-4.6 3.4-4.6.9 0 1.8.1 2.7.4s2.2.9 3.7 1.5c5.1 2.2 10.6 4 16.4 5.2 6 1.2 11.8 1.8 17.7 1.8 9.4 0 16.7-1.6 21.7-4.9 5.1-3.3 7.7-8 7.7-14.1 0-4.2-1.3-7.6-4-10.4s-7.7-5.4-15-7.7l-21.6-6.7c-10.9-3.4-18.9-8.5-23.8-15.2-4.9-6.6-7.4-13.8-7.4-21.6 0-6.3 1.3-11.8 4-16.5 2.7-4.8 6.3-8.9 10.7-12.2 4.5-3.4 9.5-6 15.5-7.7 6-1.8 12.2-2.5 18.8-2.5 3.3 0 6.7.1 10 .6 3.4.4 6.6 1 9.7 1.6 3 .7 5.8 1.5 8.5 2.4s4.8 1.8 6.3 2.7c2.1 1.2 3.6 2.4 4.5 3.7.9 1.2 1.3 2.8 1.3 4.9v7c0 3.1-1.2 4.8-3.4 4.8-1.2 0-3.1-.6-5.7-1.8-8.5-3.9-18-5.8-28.6-5.8-8.5 0-15.2 1.3-19.8 4.2-4.6 2.8-7 7.1-7 13.2 0 4.2 1.5 7.7 4.5 10.6 3 2.8 8.5 5.7 16.4 8.2l21.1 6.7c10.7 3.4 18.5 8.2 23.1 14.3s6.8 13.1 6.8 20.8c0 6.4-1.3 12.2-3.9 17.3-2.7 5.1-6.3 9.5-10.9 13.1-4.6 3.7-10.1 6.4-16.5 8.3-6.8 2-13.8 3.1-21.4 3.1z" fill="#252f3e"/><path clip-rule="evenodd" d="M5046.5 3792.6c-49 36.2-120.1 55.4-181.3 55.4-85.8 0-163-31.7-221.4-84.4-4.6-4.2-.4-9.8 5.1-6.6 63.1 36.6 141 58.8 221.5 58.8 54.3 0 114-11.3 169-34.5 8.2-3.7 15.2 5.4 7.1 11.3z" fill="#f90" fill-rule="evenodd"/><path clip-rule="evenodd" d="M5066.9 3769.4c-6.3-8-41.4-3.9-57.3-1.9-4.8.6-5.5-3.6-1.2-6.7 28-19.7 74-14 79.3-7.4 5.4 6.7-1.5 52.7-27.7 74.7-4 3.4-7.9 1.6-6.1-2.8 6-14.8 19.3-48 13-55.9z" fill="#f90" fill-rule="evenodd"/><path d="M5181.6 1529.5c-25.4-116.9-165.6-185.6-313-153.6-147.5 32-246.4 152.9-221 269.8s165.6 185.6 313 153.5 246.4-152.9 221-269.7m-276.9 203.9c-82.3 0-149.1-66.7-149.1-149s66.7-149.1 149-149.1 149.1 66.7 149.1 149v.1c-.1 82.3-66.8 149-149 149" fill="#008996"/><path d="M4941.8 1399.8c-105.3.1-190.7 85.5-190.6 190.9s85.5 190.7 190.9 190.6c105.3-.1 190.6-85.5 190.6-190.8s-85.4-190.7-190.7-190.7h-.2m-37.1 331.1c-81-.1-146.5-65.9-146.3-146.8.1-81 65.9-146.5 146.8-146.3 80.9.1 146.4 65.8 146.3 146.7-.1 81-65.7 146.5-146.7 146.5 0-.1-.1-.1-.1-.1" fill="#1dcad3"/><g fill="#212021"><path d="M4852.2 1569.8l-16.1-33.7c-3.4-6.9-6.5-14-9.1-21.3l-.3.3c.5 6 .6 13.6.7 19.9l.4 34.7h-11.7V1498h13.5l17.4 35c2.9 6 5.4 12.1 7.4 18.5l.4-.3c-.4-3.7-1.1-13.9-1.1-20.3v-32.7h11.3v71.6zm33.9-23.1v.8c0 7.3 2.7 15 12.9 15 4.8 0 9.5-1.8 13.1-5.1l4.4 6.9c-5.2 4.5-11.9 7-18.8 6.9-14.9 0-24.2-10.7-24.2-27.4-.7-7.6 1.7-15.1 6.5-20.9 4-4.7 9.9-7.3 16.1-7.1 5.3-.2 10.5 1.8 14.4 5.4 4.6 4.1 6.8 10.6 6.8 22.8v2.4zm10.1-22c-6.4 0-10.1 5.1-10.1 13.6h19.4c0-8.5-3.8-13.6-9.4-13.6m81.9 45.3h-10.7l-6.4-24.1c-1.7-6.2-3.4-14.3-3.4-14.3s-.8 5.1-3.4 14.8l-6.5 23.6h-10.7l-14.3-52.1 11.3-1.6 5.7 25.4c1.5 6.5 2.7 13.8 2.7 13.8h.3s1.1-6.8 3-14.1l6.7-24.2h11.2l5.9 23.6c2.2 8.5 3.3 14.9 3.3 14.9h.3s1.3-8 2.6-14.1l5.4-24.2h11.8zm-134.8 92.1l-6.2-11.1c-3.2-6.4-7.3-12.4-12.2-17.7-1.1-1.4-2.9-2.2-4.7-2.2v31h-11.7v-71.7h21.9c16 0 23.3 9.3 23.3 20.3.8 10.1-6.7 18.9-16.8 19.7h-1c4.5 4.1 8.2 8.9 11.1 14.3l10.6 17.2zm-16.6-62.1h-6.5v22.7h6.1c4.1.6 8.4-.5 11.7-3 2.2-2.4 3.3-5.5 3.2-8.7 0-7.3-3.9-11-14.5-11m46.4 39v.6c0 7.3 2.7 15.2 13 15.2 4.8 0 9.5-1.8 13-5.1l4.5 6.9c-5.2 4.5-12 6.9-18.9 6.8-14.8 0-24.1-10.7-24.1-27.4-.5-7.4 1.8-14.6 6.5-20.3 4-4.7 9.9-7.3 16.1-7.1 5.3-.2 10.5 1.8 14.4 5.4 4.6 4.1 6.8 10.6 6.8 22.8v2.4zm10.2-22c-6.4 0-10.1 5.1-10.1 13.6h19.4c0-8.5-3.8-13.6-9.4-13.6m42.6 46.2c-11.5 0-11.5-10.1-11.5-14.8v-44.7c.1-5.1-.3-10.2-1.1-15.2l11.6-2.7c.8 4.8 1.1 9.6.9 14.4v44.4c0 7 .4 8.2 1.2 9.4.9 1.1 2.5 1.4 3.8.9l1.8 7.1c-2.2.8-4.5 1.3-6.8 1.2m19.9-61.3c-4.1-.1-7.4-3.4-7.4-7.6v-.1c0-4.2 3.4-7.6 7.6-7.6s7.6 3.4 7.6 7.6-3.4 7.6-7.7 7.6m-5.7 60.3v-51.6l11.5-2.1v53.7zm44 1.3c-14.3 0-22.3-10.1-22.3-26.9 0-19.1 11.4-28.2 23.1-28.2 5.5-.2 10.7 2 14.5 5.9l-5.7 7.6c-2.3-2.4-5.5-3.9-8.8-4.1-3.5-.1-6.8 1.9-8.3 5.1-1.7 4.7-2.5 9.6-2.2 14.6-.6 5 .7 10.1 3.5 14.3 1.8 2 4.3 3.1 6.9 3 4.1-.2 7.9-2 10.6-5.1l5.4 6.8c-4.1 4.7-10.3 7.3-16.7 7"/></g><path d="M5883.7 1489.5v216.6h65.1V1673h-21.5v-216.5h-43.6zM5318.6 1673h22.1v-104.5h-22.1v-28.7l22.1-3.6V1507c0-35.2 7.7-50.5 52.6-50.5 9.7 0 21.2 1.4 31.3 3.2l-6 35.4c-6.8-1.1-10.2-1.3-14.5-1.3-15.8 0-19.8 1.6-19.8 17.1v25.2h32.9v32.4h-32.9V1673h21.9v33.1h-87.6zm542.9-10.5c-6.8 1.4-12.8 1.3-17.1 1.4-17.9.4-16.4-5.5-16.4-22.4v-73.1h34.1V1536H5828v-79.6h-43.6v194.1c0 38.1 9.4 55.5 50.4 55.5 9.7 0 23-2.5 33.1-4.7zm-131.4-94.1v-5.8c-13.2-2.4-26.3-2.4-33.4-2.4-20.3 0-22.8 10.8-22.8 16.6 0 8.2 2.8 12.7 24.8 17.5 32.1 7.2 64.4 14.7 64.4 54.5 0 37.8-19.4 57.3-60.3 57.3-27.4 0-53.9-5.9-74.2-11v-32.5h33v5.8c14.2 2.7 29.1 2.5 36.9 2.5 21.6 0 25.1-11.6 25.1-17.8 0-8.6-6.2-12.7-26.5-16.8-38.2-6.5-68.5-19.6-68.5-58.4 0-36.7 24.6-51.1 65.5-51.1 27.7 0 48.8 4.3 69.1 9.4v32.3zm-220.7 94v-5.1h-5.2v5.1c-23.4-1.4-42.1-20.2-43.3-43.6h5.2v-5.2h-5.2c1.4-23.3 20-41.9 43.3-43.2v5.1h5.2v-5.1c22.9 1.2 41.4 19.2 43.4 41.9v1.5h-5.2v5.2h5.2v1.4c-2 22.8-20.5 40.8-43.4 42zm87 .1v-135.6h-43.6v12.7c-9.1-5.5-19.2-9.3-29.6-11.2h.2v-15h5.3v-11.1h-43.9v11.1h5.3v15h.3c-41.7 7.7-73.3 44.2-73.3 88.1 0 49.5 40.1 89.6 89.6 89.6 16.3 0 32.2-4.4 46.2-12.8l7.8 12.8h46v-43.6zm462.6-126.4h89.9v32.3h-21.5l-55.1 135.6c-15.8 38.1-41.7 73.9-81.3 73.9-9.7 0-22.7-1.1-31.6-3.2l3.9-39.5c5.8 1.1 13.3 1.8 17.3 1.8 18.3 0 39-11.4 45.5-31.1l-55.8-137.4h-21.5v-32.3h89.9v32.3h-21.5l31.6 77.8 31.6-77.8H6059zm-529.4 60.9l-3.3-3.3-16.8 14.7c-.9-.3-1.8-.5-2.7-.5-4.5 0-8.2 3.8-8.2 8.5s3.7 8.5 8.2 8.5 8.2-3.8 8.2-8.5c0-.9-.1-1.7-.4-2.5z" fill="#d52f2f"/></svg>